<?xml version="1.0" encoding="utf-8"?>
<svg version="1.1" id="Layer_1" xmlns="http://www.w3.org/2000/svg" xmlns:xlink="http://www.w3.org/1999/xlink" x="0px" y="0px"
	 width="128px" height="128px" viewBox="0 0 128 128" style="enable-background:new 0 0 128 128;" xml:space="preserve">
<style type="text/css">
	.st0{fill:#FF3C00;}
	.st1{enable-background:new    ;}
	.st2{fill:#FFFFFF;}
</style>
<path id="path9" class="st0" d="M128,64c0,64,0,64-64,64S0,128,0,64S0,0,64,0S128,0,128,64"/>
<g class="st1">
	<path class="st2" d="M70.267,92.278c0.417,1.25,0.678,2.24,0.781,2.969c0.104,0.729-0.035,1.276-0.416,1.641
		c-0.383,0.365-1.06,0.59-2.031,0.678c-0.973,0.086-2.31,0.13-4.011,0.13c-1.771,0-3.151-0.026-4.141-0.078
		c-0.99-0.052-1.745-0.156-2.266-0.312c-0.521-0.156-0.886-0.373-1.094-0.651c-0.208-0.277-0.383-0.642-0.521-1.094l-4.531-13.541
		H26.725l-4.271,13.177c-0.139,0.486-0.322,0.895-0.547,1.224c-0.227,0.331-0.591,0.591-1.094,0.781
		c-0.504,0.19-1.216,0.321-2.136,0.391c-0.92,0.069-2.127,0.104-3.62,0.104c-1.598,0-2.848-0.052-3.75-0.156
		c-0.903-0.104-1.528-0.355-1.875-0.755c-0.348-0.399-0.469-0.964-0.365-1.693c0.104-0.729,0.365-1.7,0.781-2.916l20.781-59.792
		c0.208-0.59,0.451-1.067,0.729-1.432c0.277-0.365,0.72-0.642,1.328-0.833c0.607-0.19,1.449-0.312,2.526-0.364
		c1.076-0.052,2.5-0.078,4.271-0.078c2.048,0,3.68,0.026,4.896,0.078c1.215,0.052,2.162,0.174,2.838,0.364
		c0.677,0.191,1.163,0.478,1.458,0.859c0.294,0.383,0.547,0.903,0.755,1.562L70.267,92.278z M39.33,42.852h-0.052l-9.531,28.646
		H48.86L39.33,42.852z"/>
	<path class="st2" d="M116.204,35.612c0,1.007-0.044,1.867-0.13,2.578c-0.088,0.712-0.218,1.285-0.391,1.719
		c-0.175,0.435-0.391,0.755-0.651,0.963s-0.547,0.312-0.859,0.312H97.298v54.323c0,0.348-0.113,0.66-0.339,0.938
		c-0.226,0.278-0.599,0.504-1.119,0.677c-0.521,0.175-1.225,0.312-2.109,0.417c-0.886,0.104-1.988,0.156-3.308,0.156
		c-1.32,0-2.422-0.052-3.308-0.156c-0.885-0.104-1.588-0.242-2.109-0.417c-0.521-0.173-0.895-0.398-1.119-0.677
		c-0.227-0.277-0.339-0.59-0.339-0.938V41.185H66.673c-0.348,0-0.643-0.104-0.886-0.312s-0.451-0.529-0.625-0.963
		c-0.174-0.434-0.304-1.007-0.39-1.719c-0.087-0.711-0.13-1.571-0.13-2.578c0-1.042,0.043-1.927,0.13-2.656
		c0.086-0.729,0.216-1.311,0.39-1.745c0.174-0.434,0.382-0.746,0.625-0.938c0.243-0.19,0.538-0.286,0.886-0.286h47.5
		c0.312,0,0.599,0.096,0.859,0.286c0.261,0.191,0.477,0.504,0.651,0.938c0.173,0.435,0.303,1.016,0.391,1.745
		C116.16,33.685,116.204,34.57,116.204,35.612z"/>
</g>
</svg>
