<?xml version="1.0" encoding="utf-8"?>
<svg version="1.1" id="Layer_1" xmlns="http://www.w3.org/2000/svg" xmlns:xlink="http://www.w3.org/1999/xlink" x="0px" y="0px"
	 width="64px" height="64px" viewBox="0 0 64 64" style="enable-background:new 0 0 64 64;" xml:space="preserve">
<style type="text/css">
	.st0{fill:#FF3C00;}
	.st1{enable-background:new    ;}
	.st2{fill:#FFFFFF;}
</style>
<path id="path9" class="st0" d="M64,32c0,32,0,32-32,32S0,64,0,32S0,0,32,0S64,0,64,32"/>
<g class="st1">
	<path class="st2" d="M35.134,46.14c0.208,0.625,0.338,1.119,0.391,1.484c0.052,0.364-0.018,0.638-0.209,0.82
		c-0.191,0.182-0.529,0.295-1.016,0.338c-0.485,0.043-1.154,0.065-2.005,0.065c-0.885,0-1.576-0.013-2.07-0.039
		s-0.873-0.078-1.133-0.156s-0.443-0.187-0.547-0.325s-0.191-0.321-0.26-0.547l-2.266-6.771H13.363l-2.136,6.589
		c-0.069,0.243-0.161,0.447-0.273,0.612s-0.295,0.295-0.547,0.391c-0.252,0.095-0.608,0.16-1.067,0.195
		c-0.46,0.034-1.064,0.052-1.81,0.052c-0.799,0-1.424-0.026-1.875-0.078c-0.452-0.052-0.764-0.178-0.938-0.378
		c-0.174-0.199-0.234-0.481-0.182-0.846c0.052-0.365,0.182-0.851,0.391-1.459l10.391-29.896c0.104-0.295,0.225-0.534,0.364-0.716
		c0.139-0.183,0.36-0.321,0.664-0.417c0.304-0.095,0.725-0.156,1.263-0.182c0.538-0.026,1.25-0.039,2.135-0.039
		c1.024,0,1.84,0.013,2.448,0.039c0.607,0.026,1.081,0.087,1.419,0.182c0.339,0.096,0.582,0.239,0.729,0.43
		c0.147,0.191,0.273,0.452,0.377,0.781L35.134,46.14z M19.665,21.426h-0.026l-4.766,14.323h9.557L19.665,21.426z"/>
	<path class="st2" d="M58.102,17.806c0,0.503-0.021,0.933-0.064,1.289s-0.109,0.643-0.195,0.859
		c-0.088,0.217-0.195,0.377-0.326,0.481c-0.129,0.104-0.273,0.156-0.43,0.156h-8.438v27.162c0,0.174-0.057,0.33-0.168,0.469
		c-0.113,0.14-0.301,0.252-0.561,0.339s-0.611,0.156-1.055,0.208s-0.994,0.078-1.654,0.078S44,48.821,43.559,48.77
		c-0.443-0.052-0.795-0.121-1.055-0.208c-0.262-0.087-0.447-0.199-0.561-0.339c-0.113-0.139-0.17-0.295-0.17-0.469V20.592h-8.438
		c-0.174,0-0.32-0.052-0.442-0.156c-0.122-0.104-0.226-0.264-0.312-0.481c-0.087-0.217-0.152-0.503-0.195-0.859
		s-0.065-0.786-0.065-1.289c0-0.521,0.021-0.963,0.065-1.328s0.108-0.655,0.195-0.873c0.087-0.217,0.191-0.373,0.312-0.469
		c0.122-0.095,0.269-0.143,0.442-0.143h23.75c0.156,0,0.301,0.048,0.43,0.143c0.131,0.096,0.238,0.252,0.326,0.469
		c0.086,0.217,0.152,0.508,0.195,0.873S58.102,17.285,58.102,17.806z"/>
</g>
</svg>
