<?xml version="1.0" encoding="UTF-8"?>
<svg id="SVGRoot" width="16px" height="16px" version="1.1" viewBox="0 0 16 16" xmlns="http://www.w3.org/2000/svg">
 <g>
  <rect width="1" height="1"/>
  <rect y="3" width="1" height="1"/>
  <rect x="6" width="1" height="1"/>
  <rect x="9" width="1" height="1"/>
  <rect y="12" width="1" height="1"/>
  <rect x="15" width="1" height="1"/>
  <rect x="6" y="15" width="1" height="1"/>
  <rect x="9" y="15" width="1" height="1"/>
  <rect x="12" width="1" height="1"/>
  <rect x="3" width="1" height="1"/>
  <rect y="15" width="1" height="1"/>
  <rect x="15" y="3" width="1" height="1"/>
  <rect x="15" y="6" width="1" height="1"/>
  <rect x="15" y="9" width="1" height="1"/>
  <rect x="15" y="12" width="1" height="1"/>
  <rect x="15" y="15" width="1" height="1"/>
  <rect x="12" y="15" width="1" height="1"/>
  <rect x="3" y="15" width="1" height="1"/>
  <path d="m0 5v6h6v-6zm1 1h4v4h-4z"/>
 </g>
</svg>
